{"title":"Swingers 2002 DVDrip Dutch Soft English subs Klam","uid":6741552,"size":1068077872,"categoryP":"video","categoryS":"movies","magnet":"?xt=urn:btih:facd6c5bec072b52607931bdda2263573e57afaa&amp;dn=Swingers+2002+DVDrip+Dutch+Soft+English+subs+Klam&amp;tr=udp%3A%2F%2Ftracker.openbittorrent.com%3A80&amp;tr=udp%3A%2F%2Fopen.demonii.com%3A1337&amp;tr=udp%3A%2F%2Ftracker.coppersurfer.tk%3A6969&amp;tr=udp%3A%2F%2Fexodus.desync.com%3A6969","seeders":3,"leechers":1,"uploader":"Klambake","files":-1,"time":1318525801,"description":"With: Joep Sertons, Ellen van der Koogh and Nienke Brinkhuis\n\nNederlands gesproken met orginele Engelse ondertitel,\nDiana en Julian (dertigers) zijn al geruime tijd bij elkaar. Ondanks Diana's onzekerheid, stemt ze toch in om seksueel te experimenteren met een ander stel. Ze plaatsen hiervoor een advertentie op het internet waarop de ervaren Timo en Alex reageren. In de loop van dat weekend veranderen de onderlinge verhoudingen echter drastisch.\n\nDutch spoken with original English soft subs,\nDespite Diana's insecure nature, she and her husband Julian agree with the idea to sexually experiment with another couple...\n\n------------------ Dutch Friends ------------------\nYou can find my Friends at: http://www.Film-Test.nl \n------ They got my dutch subs ----- and more ------\n\nGeneral:\n\nComplete name                    : Swingers\\Swingers.avi\nFormat                           : AVI\nFormat/Info                      : Audio Video Interleave\nFile size                        : 1 018 MiB\nDuration                         : 1h 32mn\nOverall bit rate                 : 1 538 Kbps\n\nVideo:\n\nFormat                           : MPEG-4 Visual\nFormat profile                   : Simple@L3\nFormat settings, BVOP            : No\nFormat settings, QPel            : No\nFormat settings, GMC             : No warppoints\nFormat settings, Matrix          : Default (H.263)\nCodec ID                         : XVID\nCodec ID/Hint                    : XviD\nDuration                         : 1h 32mn\nBit rate                         : 1 079 Kbps\nWidth                            : 652 pixels\nHeight                           : 352 pixels\nDisplay aspect ratio             : 1.852\nFrame rate                       : 25.000 fps\nColor space                      : YUV\nChroma subsampling               : 4:2:0\nBit depth                        : 8 bits\nScan type                        : Progressive\nCompression mode                 : Lossy\nBits/(Pixel*Frame)               : 0.188\nStream size                      : 715 MiB (70%)\nWriting library                  : XviD 1.1.2 (UTC 2006-11-01)\n\nAudio:\n\nFormat                           : AC-3\nFormat/Info                      : Audio Coding 3\nMode extension                   : CM (complete main)\nCodec ID                         : 2000\nDuration                         : 1h 32mn\nBit rate mode                    : Constant\nBit rate                         : 448 Kbps\nChannel(s)                       : 6 channels\nChannel positions                : Front: L C R, Side: L R, LFE\nSampling rate                    : 48.0 KHz\nBit depth                        : 16 bits\nCompression mode                 : Lossy\nStream size                      : 297 MiB (29%)\nAlignment                        : Aligned on interleaves\nInterleave, duration             : 32 ms (0.80 video frame)\nInterleave, preload duration     : 544 ms\n\n","torrent":{"xt":"urn:btih:facd6c5bec072b52607931bdda2263573e57afaa","amp;dn":"Swingers+2002+DVDrip+Dutch+Soft+English+subs+Klam","amp;tr":["udp%3A%2F%2Ftracker.openbittorrent.com%3A80","udp%3A%2F%2Fopen.demonii.com%3A1337","udp%3A%2F%2Ftracker.coppersurfer.tk%3A6969","udp%3A%2F%2Fexodus.desync.com%3A6969"],"infoHash":"facd6c5bec072b52607931bdda2263573e57afaa","infoHashBuffer":{"type":"Buffer","data":[250,205,108,91,236,7,43,82,96,121,49,189,218,34,99,87,62,87,175,170]},"announce":[],"urlList":[]}}